<svg width="24" height="24" viewBox="0 0 24 24" fill="none" xmlns="http://www.w3.org/2000/svg">
<path d="M21.4922 4.94765L16.8235 5.51015C16.6688 5.5289 16.6031 5.71874 16.7133 5.8289L18.1031 7.21874L12.8063 12.5156L10.4203 10.132C10.2727 9.98436 10.036 9.98671 9.89064 10.132L2.35079 17.6742C2.3159 17.7094 2.29633 17.757 2.29633 17.8066C2.29633 17.8562 2.3159 17.9038 2.35079 17.9391L3.40548 18.9984C3.47814 19.0711 3.59767 19.0711 3.67033 18.9984L10.1555 12.5156L12.5391 14.8992C12.6867 15.0445 12.9234 15.0445 13.0688 14.8992L19.4297 8.54296L20.8195 9.9328C20.8444 9.95759 20.8758 9.97488 20.9101 9.98273C20.9443 9.99057 20.9801 9.98864 21.0133 9.97716C21.0465 9.96569 21.0758 9.94512 21.0979 9.91781C21.12 9.89049 21.134 9.85752 21.1383 9.82265L21.7008 5.1539C21.7172 5.03437 21.6141 4.93124 21.4922 4.94765Z" fill="#00C48C"/>
</svg>
